<svg width="30" height="28" viewBox="0 0 30 28" fill="none" xmlns="http://www.w3.org/2000/svg">
<path d="M15.3258 4.93434C15.2385 4.8509 15.1225 4.80432 15.0018 4.80432C14.881 4.80432 14.765 4.8509 14.6777 4.93434L3.89062 15.2392C3.84481 15.2831 3.80837 15.3357 3.78349 15.394C3.75862 15.4523 3.74583 15.5151 3.7459 15.5785L3.74414 25.25C3.74414 25.7473 3.94168 26.2242 4.29332 26.5758C4.64495 26.9274 5.12186 27.125 5.61914 27.125H11.25C11.4986 27.125 11.7371 27.0262 11.9129 26.8504C12.0887 26.6746 12.1875 26.4361 12.1875 26.1875V18.2187C12.1875 18.0944 12.2369 17.9752 12.3248 17.8873C12.4127 17.7994 12.5319 17.75 12.6562 17.75H17.3438C17.4681 17.75 17.5873 17.7994 17.6752 17.8873C17.7631 17.9752 17.8125 18.0944 17.8125 18.2187V26.1875C17.8125 26.4361 17.9113 26.6746 18.0871 26.8504C18.2629 27.0262 18.5014 27.125 18.75 27.125H24.3785C24.8758 27.125 25.3527 26.9274 25.7043 26.5758C26.056 26.2242 26.2535 25.7473 26.2535 25.25V15.5785C26.2536 15.5151 26.2408 15.4523 26.2159 15.394C26.191 15.3357 26.1546 15.2831 26.1088 15.2392L15.3258 4.93434Z" fill="#163C9E"/>
<path d="M28.7643 13.3057L24.3815 9.11269V2.75C24.3815 2.50136 24.2827 2.2629 24.1069 2.08709C23.9311 1.91127 23.6926 1.8125 23.444 1.8125H20.6315C20.3828 1.8125 20.1444 1.91127 19.9686 2.08709C19.7927 2.2629 19.694 2.50136 19.694 2.75V4.625L16.3002 1.38008C15.9826 1.05898 15.5104 0.875 15 0.875C14.4914 0.875 14.0203 1.05898 13.7028 1.38066L1.23987 13.3045C0.875413 13.6561 0.82971 14.2344 1.16135 14.6152C1.24463 14.7114 1.3466 14.7896 1.46106 14.845C1.57551 14.9005 1.70006 14.9321 1.82712 14.9379C1.95417 14.9437 2.08108 14.9236 2.20013 14.8788C2.31917 14.834 2.42785 14.7655 2.51955 14.6773L14.6778 3.05937C14.765 2.97593 14.8811 2.92935 15.0018 2.92935C15.1225 2.92935 15.2386 2.97593 15.3258 3.05937L27.4852 14.6773C27.6643 14.8491 27.9042 14.9429 28.1523 14.938C28.4004 14.9332 28.6365 14.8302 28.8088 14.6516C29.1686 14.2789 29.1387 13.6637 28.7643 13.3057Z" fill="#163C9E"/>
</svg>
