<svg width="66" height="66" viewBox="0 0 66 66" fill="none" xmlns="http://www.w3.org/2000/svg">
<path d="M33 0.5C15.0797 0.5 0.5 15.0797 0.5 33C0.5 50.9203 15.0797 65.5 33 65.5C50.9203 65.5 65.5 50.9203 65.5 33C65.5 15.0797 50.9203 0.5 33 0.5ZM25.1531 18.7531C27.1328 16.6547 29.9188 15.5 33 15.5C36.0812 15.5 38.8422 16.6625 40.8297 18.7719C42.8437 20.9094 43.8234 23.7812 43.5922 26.8687C43.1297 33 38.3797 38 33 38C27.6203 38 22.8609 33 22.4078 26.8672C22.1781 23.7547 23.1562 20.8734 25.1531 18.7531ZM33 60.5C29.3289 60.5024 25.6946 59.7676 22.3127 58.3392C18.9309 56.9108 15.8703 54.8178 13.3125 52.1844C14.7774 50.0953 16.644 48.319 18.8031 46.9594C22.7859 44.4062 27.8266 43 33 43C38.1734 43 43.2141 44.4062 47.1922 46.9594C49.3531 48.3184 51.2213 50.0947 52.6875 52.1844C50.1299 54.8181 47.0694 56.9113 43.6875 58.3397C40.3056 59.7682 36.6712 60.5028 33 60.5Z" fill="#163C9E"/>
</svg>
