<svg width="559" height="559" viewBox="0 0 559 559" fill="none" xmlns="http://www.w3.org/2000/svg">
<circle cx="279.5" cy="279.5" r="279.5" transform="rotate(-180 279.5 279.5)" fill="#301E6B"/>
<path fill-rule="evenodd" clip-rule="evenodd" d="M302.474 534.395C351.84 529.559 397.466 511.362 437.47 480.555C456.951 465.553 482.25 437.359 496.87 414.36C503.184 404.427 515.475 379.257 519.878 367.245C524.801 353.813 530.048 333.287 532.63 317.36C535.79 297.866 535.79 260.854 532.63 241.36C528.162 213.802 521.094 191.524 508.996 166.86C495.778 139.915 482.034 120.815 460.025 98.8051C438.015 76.7961 418.915 63.0521 391.97 49.8341C367.306 37.7361 345.028 30.6681 317.47 26.2001C297.976 23.0401 260.964 23.0401 241.47 26.2001C213.912 30.6681 191.634 37.7361 166.97 49.8341C140.025 63.0521 120.925 76.7961 98.915 98.8051C76.906 120.815 63.162 139.915 49.944 166.86C41.165 184.758 36.749 196.488 32.019 214.475C25.72 238.429 24.122 251.56 24.122 279.36C24.122 307.16 25.72 320.291 32.019 344.245C36.749 362.232 41.165 373.962 49.944 391.86C63.162 418.805 76.906 437.905 98.915 459.915C120.925 481.924 140.025 495.668 166.97 508.886C191.61 520.973 214.329 528.184 240.97 532.375C255.669 534.687 288.491 535.765 302.474 534.395ZM313.47 405.284C310.058 403.743 295.959 390.273 255.14 349.556C225.533 320.023 199.883 293.835 198.14 291.36C195.262 287.274 194.97 286.169 194.97 279.36C194.97 272.551 195.262 271.446 198.14 267.36C199.883 264.885 225.533 238.697 255.14 209.164C311.792 152.653 313.221 151.418 321.97 151.392C326.385 151.378 335.02 155.007 337.665 157.986C340.548 161.234 343.426 168.665 343.426 172.86C343.426 181.498 341.8 183.413 292.688 232.61L246.019 279.36L292.688 326.11C341.8 375.307 343.426 377.222 343.426 385.86C343.426 390.055 340.548 397.486 337.665 400.734C335.02 403.713 326.385 407.342 321.97 407.328C319.77 407.322 315.945 406.402 313.47 405.284Z" fill="white"/>
</svg>
