<svg width="24" height="24" viewBox="0 0 24 24" fill="none" xmlns="http://www.w3.org/2000/svg">
<path d="M12 0.28125C5.53828 0.28125 0.28125 5.53828 0.28125 12C0.28125 18.4617 5.53828 23.7188 12 23.7188C18.4617 23.7188 23.7188 18.4617 23.7188 12C23.7188 5.53828 18.4617 0.28125 12 0.28125ZM12 5.08594C12.3013 5.08594 12.5958 5.17529 12.8464 5.34268C13.0969 5.51008 13.2922 5.74801 13.4075 6.02638C13.5228 6.30475 13.5529 6.61106 13.4942 6.90658C13.4354 7.2021 13.2903 7.47355 13.0772 7.68661C12.8642 7.89966 12.5927 8.04476 12.2972 8.10354C12.0017 8.16232 11.6954 8.13215 11.417 8.01685C11.1386 7.90154 10.9007 7.70628 10.7333 7.45575C10.5659 7.20522 10.4766 6.91068 10.4766 6.60938C10.4766 6.20533 10.6371 5.81784 10.9228 5.53214C11.2085 5.24644 11.596 5.08594 12 5.08594ZM14.8125 18.3281H9.65625C9.40761 18.3281 9.16915 18.2294 8.99334 18.0535C8.81752 17.8777 8.71875 17.6393 8.71875 17.3906C8.71875 17.142 8.81752 16.9035 8.99334 16.7277C9.16915 16.5519 9.40761 16.4531 9.65625 16.4531H11.2969V11.2969H10.3594C10.1107 11.2969 9.87228 11.1981 9.69646 11.0223C9.52065 10.8465 9.42188 10.608 9.42188 10.3594C9.42188 10.1107 9.52065 9.87228 9.69646 9.69646C9.87228 9.52065 10.1107 9.42188 10.3594 9.42188H12.2344C12.483 9.42188 12.7215 9.52065 12.8973 9.69646C13.0731 9.87228 13.1719 10.1107 13.1719 10.3594V16.4531H14.8125C15.0611 16.4531 15.2996 16.5519 15.4754 16.7277C15.6512 16.9035 15.75 17.142 15.75 17.3906C15.75 17.6393 15.6512 17.8777 15.4754 18.0535C15.2996 18.2294 15.0611 18.3281 14.8125 18.3281Z" fill="#696868"/>
</svg>
