<svg width="28" height="22" viewBox="0 0 28 22" fill="none" xmlns="http://www.w3.org/2000/svg">
<path d="M23.8438 0.6875H4.15625C3.28629 0.688431 2.45224 1.03443 1.83708 1.64958C1.22193 2.26474 0.875931 3.09879 0.875 3.96875V18.0312C0.875931 18.9012 1.22193 19.7353 1.83708 20.3504C2.45224 20.9656 3.28629 21.3116 4.15625 21.3125H23.8438C24.7137 21.3116 25.5478 20.9656 26.1629 20.3504C26.7781 19.7353 27.1241 18.9012 27.125 18.0312V3.96875C27.1241 3.09879 26.7781 2.26474 26.1629 1.64958C25.5478 1.03443 24.7137 0.688431 23.8438 0.6875ZM23.0129 6.11504L14.5754 12.6775C14.4109 12.8054 14.2084 12.8749 14 12.8749C13.7916 12.8749 13.5891 12.8054 13.4246 12.6775L4.98711 6.11504C4.88798 6.04018 4.80471 5.94636 4.74215 5.83904C4.67959 5.73172 4.63898 5.61303 4.62269 5.48988C4.60639 5.36673 4.61473 5.24157 4.64723 5.12167C4.67972 5.00177 4.73572 4.88952 4.81197 4.79145C4.88822 4.69338 4.9832 4.61145 5.09139 4.5504C5.19959 4.48936 5.31883 4.45042 5.4422 4.43586C5.56557 4.4213 5.6906 4.43141 5.81003 4.46559C5.92946 4.49976 6.0409 4.55734 6.13789 4.63496L14 10.7498L21.8621 4.63496C22.0587 4.4865 22.3058 4.42138 22.5501 4.4537C22.7943 4.48601 23.016 4.61316 23.1672 4.80765C23.3184 5.00214 23.387 5.24833 23.3581 5.49298C23.3292 5.73764 23.2052 5.9611 23.0129 6.11504Z" fill="#696868"/>
</svg>
